<svg width="17" height="12" viewBox="0 0 17 12" fill="none" xmlns="http://www.w3.org/2000/svg">
<g clip-path="url(#clip0_75609_16146)">
<path d="M8.50002 4.75488C8.69945 4.75455 8.89373 4.81645 9.05427 4.93149L16.6228 10.3655C16.7212 10.4362 16.8044 10.5251 16.8675 10.6272C16.9307 10.7292 16.9725 10.8423 16.9907 10.96C17.0273 11.1978 16.9654 11.44 16.8184 11.6334C16.6714 11.8267 16.4514 11.9554 16.2068 11.9911C15.9623 12.0267 15.7131 11.9665 15.5143 11.8236L8.50002 6.79262L1.48577 11.8236C1.3873 11.8943 1.27545 11.9455 1.15662 11.9743C1.03779 12.003 0.914302 12.0087 0.793205 11.9911C0.672105 11.9734 0.555773 11.9327 0.450846 11.8714C0.345917 11.81 0.254448 11.7291 0.181663 11.6334C0.108879 11.5376 0.056202 11.4289 0.0266419 11.3134C-0.00291817 11.1978 -0.00878326 11.0778 0.00938043 10.96C0.027546 10.8423 0.0693837 10.7292 0.132509 10.6272C0.195633 10.5251 0.278807 10.4362 0.377281 10.3654L7.94577 4.93149C8.10631 4.81645 8.30059 4.75455 8.50002 4.75488Z" fill="#FF0000"/>
<path d="M8.50002 1.33725e-06C8.69945 -0.000332908 8.89373 0.0615701 9.05427 0.176605L16.6228 5.61057C16.8216 5.75348 16.954 5.96736 16.9907 6.20514C17.0273 6.44292 16.9654 6.68513 16.8184 6.87849C16.6714 7.07185 16.4514 7.20052 16.2068 7.23618C15.9623 7.27185 15.7131 7.2116 15.5143 7.06868L8.50002 2.03774L1.48577 7.06868C1.2869 7.2116 1.03777 7.27185 0.793205 7.23618C0.548635 7.20051 0.328659 7.07185 0.181663 6.87849C0.034668 6.68513 -0.0273036 6.44292 0.00938043 6.20514C0.0460664 5.96736 0.178404 5.75348 0.377281 5.61057L7.94577 0.176605C8.10631 0.06157 8.30059 -0.000332943 8.50002 1.33725e-06Z" fill="#FF0000"/>
</g>
<defs>
<clipPath id="clip0_75609_16146">
<rect width="17" height="12" fill="white" transform="translate(17 12) rotate(-180)"/>
</clipPath>
</defs>
</svg>
