<svg width="17" height="12" viewBox="0 0 17 12" fill="none" xmlns="http://www.w3.org/2000/svg">
<g clip-path="url(#clip0_75609_16139)">
<path d="M8.49998 7.24512C8.30055 7.24545 8.10628 7.18355 7.94574 7.06851L0.377243 1.63455C0.278769 1.56378 0.195596 1.47485 0.132472 1.37284C0.0693478 1.27082 0.027509 1.15771 0.00934435 1.03998C-0.0273408 0.802195 0.0346308 0.559983 0.181626 0.366625C0.328621 0.173268 0.5486 0.0446026 0.793168 0.00893536C1.03774 -0.0267319 1.28686 0.0335201 1.48574 0.176437L8.49998 5.20738L15.5142 0.176438C15.6127 0.105672 15.7245 0.0544579 15.8434 0.0257179C15.9622 -0.00302201 16.0857 -0.00872444 16.2068 0.00893622C16.3279 0.0265969 16.4442 0.0672747 16.5492 0.128647C16.6541 0.19002 16.7456 0.270885 16.8183 0.366626C16.8911 0.462367 16.9438 0.571109 16.9734 0.686643C17.0029 0.802177 17.0088 0.92224 16.9906 1.03998C16.9725 1.15772 16.9306 1.27082 16.8675 1.37284C16.8044 1.47486 16.7212 1.56379 16.6227 1.63455L9.05423 7.06851C8.89369 7.18355 8.69941 7.24545 8.49998 7.24512Z" fill="#02CF2F"/>
<path d="M8.49998 12C8.30055 12.0003 8.10628 11.9384 7.94574 11.8234L0.377242 6.38943C0.178366 6.24652 0.0460295 6.03264 0.00934435 5.79486C-0.0273408 5.55708 0.0346308 5.31487 0.181626 5.12151C0.328621 4.92815 0.548599 4.79949 0.793167 4.76382C1.03774 4.72815 1.28686 4.7884 1.48574 4.93132L8.49998 9.96226L15.5142 4.93132C15.7131 4.7884 15.9622 4.72815 16.2068 4.76382C16.4514 4.79949 16.6713 4.92815 16.8183 5.12151C16.9653 5.31487 17.0273 5.55708 16.9906 5.79486C16.9539 6.03264 16.8216 6.24652 16.6227 6.38943L9.05423 11.8234C8.89369 11.9384 8.69941 12.0003 8.49998 12Z" fill="#02CF2F"/>
</g>
<defs>
<clipPath id="clip0_75609_16139">
<rect width="17" height="12" fill="white"/>
</clipPath>
</defs>
</svg>
