<svg width="18" height="18" viewBox="0 0 18 18" fill="none" xmlns="http://www.w3.org/2000/svg">
<path d="M6.50185 13.0037C4.68467 13.0037 3.14673 12.3744 1.88804 11.1157C0.629346 9.85697 0 8.31903 0 6.50185C0 4.68467 0.629346 3.14673 1.88804 1.88804C3.14673 0.629346 4.68467 0 6.50185 0C8.31903 0 9.85697 0.629346 11.1157 1.88804C12.3744 3.14673 13.0037 4.68467 13.0037 6.50185C13.0037 7.23539 12.887 7.92725 12.6536 8.57744C12.4202 9.22762 12.1034 9.80279 11.7033 10.3029L17.3049 15.9045C17.4883 16.0879 17.58 16.3213 17.58 16.6047C17.58 16.8881 17.4883 17.1215 17.3049 17.3049C17.1215 17.4883 16.8881 17.58 16.6047 17.58C16.3213 17.58 16.0879 17.4883 15.9045 17.3049L10.3029 11.7033C9.80279 12.1034 9.22762 12.4202 8.57744 12.6536C7.92725 12.887 7.23539 13.0037 6.50185 13.0037ZM6.50185 11.0031C7.7522 11.0031 8.81501 10.5655 9.69026 9.69026C10.5655 8.81501 11.0031 7.7522 11.0031 6.50185C11.0031 5.25149 10.5655 4.18869 9.69026 3.31344C8.81501 2.43819 7.7522 2.00057 6.50185 2.00057C5.25149 2.00057 4.18869 2.43819 3.31344 3.31344C2.43819 4.18869 2.00057 5.25149 2.00057 6.50185C2.00057 7.7522 2.43819 8.81501 3.31344 9.69026C4.18869 10.5655 5.25149 11.0031 6.50185 11.0031Z" fill="#2A3647"/>
</svg>
